<svg width="68" height="13" viewBox="0 0 68 13" fill="none" xmlns="http://www.w3.org/2000/svg">
<path d="M5.68468 2.84659C5.25631 2.84659 4.93522 2.45654 4.60653 2.18182C4.41903 2.02273 4.13352 1.94318 3.75 1.94318C3.50568 1.94318 3.3054 1.97301 3.14915 2.03267C2.99574 2.08949 2.8821 2.16761 2.80824 2.26705C2.73438 2.36648 2.69602 2.48011 2.69318 2.60795C2.6875 2.71307 2.70597 2.80824 2.74858 2.89347C2.79403 2.97585 2.86506 3.05114 2.96165 3.11932C3.05824 3.18466 3.18182 3.24432 3.33239 3.2983C3.48295 3.35227 3.66193 3.40057 3.86932 3.44318L4.58523 3.59659C5.06818 3.69886 5.48153 3.83381 5.82528 4.00142C6.16903 4.16903 6.45028 4.36648 6.66903 4.59375C6.88778 4.81818 7.0483 5.07102 7.15057 5.35227C7.25568 5.63352 7.30966 5.94034 7.3125 6.27273C7.30966 6.84659 7.16619 7.33239 6.8821 7.73011C6.59801 8.12784 6.19176 8.4304 5.66335 8.63778C5.13778 8.84517 4.50568 8.94886 3.76705 8.94886C3.00852 8.94886 2.34659 8.83665 1.78125 8.61222C1.21875 8.38778 0.78125 8.04261 0.46875 7.5767C0.339239 7.38066 0.236563 7.16175 0.160721 6.91998C-0.0303352 6.31093 0.518775 5.77841 1.15709 5.77841H1.53924C1.93774 5.77841 2.23164 6.11853 2.45028 6.4517C2.5696 6.63352 2.73722 6.77131 2.95312 6.86506C3.17188 6.95881 3.43182 7.00568 3.73295 7.00568C3.9858 7.00568 4.19744 6.97443 4.3679 6.91193C4.53835 6.84943 4.66761 6.76278 4.75568 6.65199C4.84375 6.54119 4.8892 6.41477 4.89205 6.27273C4.8892 6.1392 4.84517 6.02273 4.75994 5.9233C4.67756 5.82102 4.54119 5.73011 4.35085 5.65057C4.16051 5.56818 3.90341 5.49148 3.57955 5.42045L2.71023 5.23295C1.9375 5.06534 1.32812 4.78551 0.882102 4.39347C0.43892 3.99858 0.21875 3.46023 0.221591 2.77841C0.21875 2.22443 0.366477 1.74006 0.664773 1.32528C0.965909 0.90767 1.3821 0.582386 1.91335 0.349432C2.44744 0.116477 3.05966 0 3.75 0C4.45455 0 5.06392 0.117898 5.57812 0.353693C6.09233 0.589489 6.48864 0.921875 6.76705 1.35085C6.84008 1.46151 6.90373 1.57706 6.95799 1.69749C7.22567 2.2916 6.66321 2.84659 6.01158 2.84659H5.68468Z" fill="#16A34A"/>
<path d="M9.39844 8.84659C8.74417 8.84659 8.21378 8.3162 8.21378 7.66193V1.30398C8.21378 0.649709 8.74417 0.119318 9.39844 0.119318C10.0527 0.119318 10.5831 0.649708 10.5831 1.30398V1.96023C10.5831 2.82631 11.2852 3.52841 12.1513 3.52841C13.0174 3.52841 13.7195 2.82631 13.7195 1.96023V1.30398C13.7195 0.649709 14.2499 0.119318 14.9041 0.119318C15.5584 0.119318 16.0888 0.649708 16.0888 1.30398V7.66193C16.0888 8.3162 15.5584 8.84659 14.9041 8.84659C14.2499 8.84659 13.7195 8.3162 13.7195 7.66193V7.00568C13.7195 6.1396 13.0174 5.4375 12.1513 5.4375C11.2852 5.4375 10.5831 6.1396 10.5831 7.00568V7.66193C10.5831 8.3162 10.0527 8.84659 9.39844 8.84659Z" fill="#16A34A"/>
<path d="M25.6683 4.48295C25.6683 5.45455 25.4794 6.27415 25.1016 6.94176C24.7237 7.60653 24.2138 8.1108 23.5717 8.45455C22.9297 8.79546 22.2138 8.96591 21.424 8.96591C20.6286 8.96591 19.9098 8.79403 19.2678 8.45028C18.6286 8.10369 18.12 7.59801 17.7422 6.93324C17.3672 6.26563 17.1797 5.44886 17.1797 4.48295C17.1797 3.51136 17.3672 2.69318 17.7422 2.02841C18.12 1.3608 18.6286 0.856534 19.2678 0.515625C19.9098 0.171875 20.6286 0 21.424 0C22.2138 0 22.9297 0.171875 23.5717 0.515625C24.2138 0.856534 24.7237 1.3608 25.1016 2.02841C25.4794 2.69318 25.6683 3.51136 25.6683 4.48295ZM23.2308 4.48295C23.2308 3.96023 23.1612 3.51989 23.022 3.16193C22.8857 2.80114 22.6825 2.52841 22.4126 2.34375C22.1456 2.15625 21.8161 2.0625 21.424 2.0625C21.032 2.0625 20.701 2.15625 20.4311 2.34375C20.1641 2.52841 19.9609 2.80114 19.8217 3.16193C19.6854 3.51989 19.6172 3.96023 19.6172 4.48295C19.6172 5.00568 19.6854 5.44744 19.8217 5.80824C19.9609 6.16619 20.1641 6.43892 20.4311 6.62642C20.701 6.81108 21.032 6.90341 21.424 6.90341C21.8161 6.90341 22.1456 6.81108 22.4126 6.62642C22.6825 6.43892 22.8857 6.16619 23.022 5.80824C23.1612 5.44744 23.2308 5.00568 23.2308 4.48295Z" fill="#16A34A"/>
<path d="M27.9492 8.84659C27.2949 8.84659 26.7646 8.3162 26.7646 7.66193V3.88636C26.7646 1.80588 28.4511 0.119318 30.5316 0.119318C31.1793 0.119318 31.7461 0.247159 32.2319 0.502841C32.7177 0.758523 33.0955 1.1179 33.3654 1.58097C33.6353 2.04403 33.7702 2.58523 33.7702 3.20455C33.7702 3.82955 33.631 4.37074 33.3526 4.82813C33.0771 5.28551 32.6893 5.63778 32.1893 5.88494C31.6921 6.1321 31.1112 6.25568 30.4464 6.25568H29.1168C28.6085 6.25568 28.1964 5.84358 28.1964 5.33523C28.1964 4.82687 28.6085 4.41477 29.1168 4.41477H29.9691C30.2475 4.41477 30.4847 4.36648 30.6808 4.26989C30.8796 4.17045 31.0316 4.02983 31.1367 3.84801C31.2447 3.66619 31.2987 3.4517 31.2987 3.20455C31.2987 2.95455 31.2447 2.74148 31.1367 2.56534C31.0316 2.38636 30.8796 2.25 30.6808 2.15625C30.4847 2.05966 30.2475 2.01136 29.9691 2.01136C29.5078 2.01136 29.1339 2.38531 29.1339 2.84659V7.66193C29.1339 8.3162 28.6035 8.84659 27.9492 8.84659Z" fill="#16A34A"/>
<path d="M35.8242 8.84659C35.17 8.84659 34.6396 8.3162 34.6396 7.66193V3.1875C34.6396 1.49299 36.0132 0.119318 37.7077 0.119318H39.8214C40.3486 0.119318 40.7759 0.546683 40.7759 1.07386C40.7759 1.60104 40.3486 2.02841 39.8214 2.02841H37.7589C37.3447 2.02841 37.0089 2.3642 37.0089 2.77841C37.0089 3.19262 37.3447 3.52841 37.7589 3.52841H39.4464C39.9736 3.52841 40.4009 3.95577 40.4009 4.48295C40.4009 5.01014 39.9736 5.4375 39.4464 5.4375H38.7049C37.7682 5.4375 37.0089 6.19684 37.0089 7.13352V7.66193C37.0089 8.3162 36.4785 8.84659 35.8242 8.84659Z" fill="#F0962E"/>
<path d="M43.0827 7.99145C42.9295 8.49919 42.4617 8.84659 41.9313 8.84659C41.1119 8.84659 40.5323 8.04502 40.7892 7.26686L42.6409 1.65703C42.9438 0.739262 43.8013 0.119318 44.7678 0.119318C45.7342 0.119318 46.5917 0.739261 46.8946 1.65703L48.7463 7.26686C49.0032 8.04502 48.4237 8.84659 47.6042 8.84659C47.0738 8.84659 46.6061 8.49919 46.4528 7.99145L44.8117 2.55536C44.8058 2.53599 44.788 2.52273 44.7678 2.52273C44.7475 2.52273 44.7297 2.53599 44.7238 2.55536L43.0827 7.99145ZM42.3473 6.28977C42.3473 5.80025 42.7441 5.40341 43.2337 5.40341H46.2678C46.7573 5.40341 47.1541 5.80025 47.1541 6.28977C47.1541 6.7793 46.7573 7.17614 46.2678 7.17614H43.2337C42.7441 7.17614 42.3473 6.7793 42.3473 6.28977Z" fill="#F0962E"/>
<path d="M55.2316 2.84659C54.8032 2.84659 54.4821 2.45654 54.1534 2.18182C53.9659 2.02273 53.6804 1.94318 53.2969 1.94318C53.0526 1.94318 52.8523 1.97301 52.696 2.03267C52.5426 2.08949 52.429 2.16761 52.3551 2.26705C52.2813 2.36648 52.2429 2.48011 52.2401 2.60795C52.2344 2.71307 52.2528 2.80824 52.2955 2.89347C52.3409 2.97585 52.4119 3.05114 52.5085 3.11932C52.6051 3.18466 52.7287 3.24432 52.8793 3.2983C53.0298 3.35227 53.2088 3.40057 53.4162 3.44318L54.1321 3.59659C54.6151 3.69886 55.0284 3.83381 55.3722 4.00142C55.7159 4.16903 55.9972 4.36648 56.2159 4.59375C56.4347 4.81818 56.5952 5.07102 56.6974 5.35227C56.8026 5.63352 56.8565 5.94034 56.8594 6.27273C56.8565 6.84659 56.7131 7.33239 56.429 7.73011C56.1449 8.12784 55.7386 8.4304 55.2102 8.63778C54.6847 8.84517 54.0526 8.94886 53.3139 8.94886C52.5554 8.94886 51.8935 8.83665 51.3281 8.61222C50.7656 8.38778 50.3281 8.04261 50.0156 7.5767C49.8861 7.38066 49.7834 7.16175 49.7076 6.91998C49.5165 6.31093 50.0656 5.77841 50.704 5.77841H51.0861C51.4846 5.77841 51.7785 6.11853 51.9972 6.4517C52.1165 6.63352 52.2841 6.77131 52.5 6.86506C52.7188 6.95881 52.9787 7.00568 53.2798 7.00568C53.5327 7.00568 53.7443 6.97443 53.9148 6.91193C54.0852 6.84943 54.2145 6.76278 54.3026 6.65199C54.3906 6.54119 54.4361 6.41477 54.4389 6.27273C54.4361 6.1392 54.392 6.02273 54.3068 5.9233C54.2244 5.82102 54.0881 5.73011 53.8977 5.65057C53.7074 5.56818 53.4503 5.49148 53.1264 5.42045L52.2571 5.23295C51.4844 5.06534 50.875 4.78551 50.429 4.39347C49.9858 3.99858 49.7656 3.46023 49.7685 2.77841C49.7656 2.22443 49.9134 1.74006 50.2116 1.32528C50.5128 0.90767 50.929 0.582386 51.4602 0.349432C51.9943 0.116477 52.6065 0 53.2969 0C54.0014 0 54.6108 0.117898 55.125 0.353693C55.6392 0.589489 56.0355 0.921875 56.3139 1.35085C56.387 1.46151 56.4506 1.57706 56.5049 1.69749C56.7726 2.2916 56.2101 2.84659 55.5585 2.84659H55.2316Z" fill="#F0962E"/>
<path d="M58.4766 2.02841C57.9494 2.02841 57.522 1.60104 57.522 1.07386C57.522 0.546683 57.9494 0.119318 58.4766 0.119318H64.1527C64.6799 0.119318 65.1072 0.546683 65.1072 1.07386C65.1072 1.60104 64.6799 2.02841 64.1527 2.02841H63.7947C63.0699 2.02841 62.4822 2.61604 62.4822 3.34091V7.67898C62.4822 8.32383 61.9595 8.84659 61.3146 8.84659C60.6698 8.84659 60.147 8.32383 60.147 7.67898V3.34091C60.147 2.61604 59.5594 2.02841 58.8345 2.02841H58.4766Z" fill="#F0962E"/>
<path d="M41.0496 11.0133C41.6758 10.9804 42.302 10.9474 46.1839 10.914C50.0659 10.8805 57.1846 10.8476 60.9507 10.8635C64.9145 10.9454 65.2501 11.0463 65.5322 11.0962C65.6825 11.1132 65.8473 11.1132 66.0171 11.1132" stroke="#16A34A" stroke-width="2" stroke-linecap="round"/>
</svg>
